<mxfile host="Electron" agent="Mozilla/5.0 (X11; Linux x86_64) AppleWebKit/537.36 (KHTML, like Gecko) draw.io/26.1.1 Chrome/132.0.6834.210 Electron/34.3.3 Safari/537.36" version="26.1.1">
  <diagram name="Page-1" id="yXiG0BpwbS0ipKWNo27W">
    <mxGraphModel dx="1114" dy="709" grid="1" gridSize="10" guides="1" tooltips="1" connect="1" arrows="1" fold="1" page="1" pageScale="1" pageWidth="827" pageHeight="1169" math="0" shadow="0">
      <root>
        <mxCell id="0" />
        <mxCell id="1" parent="0" />
        <mxCell id="WDoK3xI-HkcbFQ0kCRsj-7" style="edgeStyle=orthogonalEdgeStyle;rounded=0;orthogonalLoop=1;jettySize=auto;html=1;exitX=0.5;exitY=1;exitDx=0;exitDy=0;entryX=0.5;entryY=0;entryDx=0;entryDy=0;" edge="1" parent="1" source="WDoK3xI-HkcbFQ0kCRsj-1" target="WDoK3xI-HkcbFQ0kCRsj-5">
          <mxGeometry relative="1" as="geometry" />
        </mxCell>
        <mxCell id="WDoK3xI-HkcbFQ0kCRsj-1" value="" style="ellipse;whiteSpace=wrap;html=1;aspect=fixed;" vertex="1" parent="1">
          <mxGeometry x="100" y="30" width="30" height="30" as="geometry" />
        </mxCell>
        <mxCell id="WDoK3xI-HkcbFQ0kCRsj-9" style="edgeStyle=orthogonalEdgeStyle;rounded=0;orthogonalLoop=1;jettySize=auto;html=1;exitX=0.5;exitY=1;exitDx=0;exitDy=0;entryX=0.5;entryY=0;entryDx=0;entryDy=0;" edge="1" parent="1" source="WDoK3xI-HkcbFQ0kCRsj-2" target="WDoK3xI-HkcbFQ0kCRsj-3">
          <mxGeometry relative="1" as="geometry" />
        </mxCell>
        <mxCell id="WDoK3xI-HkcbFQ0kCRsj-2" value="Помечаем задачу для уничтожения" style="rounded=0;whiteSpace=wrap;html=1;" vertex="1" parent="1">
          <mxGeometry x="42.5" y="280" width="145" height="60" as="geometry" />
        </mxCell>
        <mxCell id="WDoK3xI-HkcbFQ0kCRsj-3" value="" style="ellipse;whiteSpace=wrap;html=1;aspect=fixed;" vertex="1" parent="1">
          <mxGeometry x="100" y="380" width="30" height="30" as="geometry" />
        </mxCell>
        <mxCell id="WDoK3xI-HkcbFQ0kCRsj-8" value="Да" style="edgeStyle=orthogonalEdgeStyle;rounded=0;orthogonalLoop=1;jettySize=auto;html=1;exitX=0.5;exitY=1;exitDx=0;exitDy=0;entryX=0.5;entryY=0;entryDx=0;entryDy=0;" edge="1" parent="1" source="WDoK3xI-HkcbFQ0kCRsj-5" target="WDoK3xI-HkcbFQ0kCRsj-2">
          <mxGeometry relative="1" as="geometry" />
        </mxCell>
        <mxCell id="WDoK3xI-HkcbFQ0kCRsj-11" value="Нет" style="edgeStyle=orthogonalEdgeStyle;rounded=0;orthogonalLoop=1;jettySize=auto;html=1;exitX=1;exitY=0.5;exitDx=0;exitDy=0;entryX=0;entryY=0.5;entryDx=0;entryDy=0;" edge="1" parent="1" source="WDoK3xI-HkcbFQ0kCRsj-5" target="WDoK3xI-HkcbFQ0kCRsj-10">
          <mxGeometry relative="1" as="geometry" />
        </mxCell>
        <mxCell id="WDoK3xI-HkcbFQ0kCRsj-5" value="Предыдущая операция завершилась с ошибкой?" style="rhombus;whiteSpace=wrap;html=1;spacingLeft=20;spacingRight=20;" vertex="1" parent="1">
          <mxGeometry x="17.5" y="120" width="195" height="100" as="geometry" />
        </mxCell>
        <mxCell id="WDoK3xI-HkcbFQ0kCRsj-13" value="Да" style="edgeStyle=orthogonalEdgeStyle;rounded=0;orthogonalLoop=1;jettySize=auto;html=1;exitX=0.5;exitY=1;exitDx=0;exitDy=0;entryX=0.5;entryY=0;entryDx=0;entryDy=0;" edge="1" parent="1" source="WDoK3xI-HkcbFQ0kCRsj-10" target="WDoK3xI-HkcbFQ0kCRsj-12">
          <mxGeometry relative="1" as="geometry" />
        </mxCell>
        <mxCell id="WDoK3xI-HkcbFQ0kCRsj-16" value="Нет" style="edgeStyle=orthogonalEdgeStyle;rounded=0;orthogonalLoop=1;jettySize=auto;html=1;" edge="1" parent="1" source="WDoK3xI-HkcbFQ0kCRsj-10" target="WDoK3xI-HkcbFQ0kCRsj-15">
          <mxGeometry relative="1" as="geometry" />
        </mxCell>
        <mxCell id="WDoK3xI-HkcbFQ0kCRsj-10" value="Пришли сюда после открытия файла?" style="rhombus;whiteSpace=wrap;html=1;spacingLeft=20;spacingRight=20;" vertex="1" parent="1">
          <mxGeometry x="270" y="125" width="192.5" height="90" as="geometry" />
        </mxCell>
        <mxCell id="WDoK3xI-HkcbFQ0kCRsj-14" style="edgeStyle=orthogonalEdgeStyle;rounded=0;orthogonalLoop=1;jettySize=auto;html=1;exitX=0.5;exitY=1;exitDx=0;exitDy=0;entryX=1;entryY=0.5;entryDx=0;entryDy=0;" edge="1" parent="1" source="WDoK3xI-HkcbFQ0kCRsj-12" target="WDoK3xI-HkcbFQ0kCRsj-3">
          <mxGeometry relative="1" as="geometry" />
        </mxCell>
        <mxCell id="WDoK3xI-HkcbFQ0kCRsj-12" value="Планируем эту же задачу на чтение" style="rounded=0;whiteSpace=wrap;html=1;spacingLeft=5;spacingRight=5;" vertex="1" parent="1">
          <mxGeometry x="292.5" y="280" width="147.5" height="60" as="geometry" />
        </mxCell>
        <mxCell id="WDoK3xI-HkcbFQ0kCRsj-18" value="Да" style="edgeStyle=orthogonalEdgeStyle;rounded=0;orthogonalLoop=1;jettySize=auto;html=1;exitX=0.5;exitY=1;exitDx=0;exitDy=0;entryX=0.5;entryY=0;entryDx=0;entryDy=0;" edge="1" parent="1" source="WDoK3xI-HkcbFQ0kCRsj-15" target="WDoK3xI-HkcbFQ0kCRsj-17">
          <mxGeometry relative="1" as="geometry" />
        </mxCell>
        <mxCell id="WDoK3xI-HkcbFQ0kCRsj-20" style="edgeStyle=orthogonalEdgeStyle;rounded=0;orthogonalLoop=1;jettySize=auto;html=1;exitX=1;exitY=0.5;exitDx=0;exitDy=0;entryX=0;entryY=0.5;entryDx=0;entryDy=0;" edge="1" parent="1" source="WDoK3xI-HkcbFQ0kCRsj-15" target="WDoK3xI-HkcbFQ0kCRsj-2">
          <mxGeometry relative="1" as="geometry">
            <Array as="points">
              <mxPoint x="720" y="170" />
              <mxPoint x="720" y="430" />
              <mxPoint x="23" y="430" />
              <mxPoint x="23" y="310" />
            </Array>
          </mxGeometry>
        </mxCell>
        <mxCell id="WDoK3xI-HkcbFQ0kCRsj-15" value="Пришли сюда после чтения файла?" style="rhombus;whiteSpace=wrap;html=1;spacingLeft=20;spacingRight=20;" vertex="1" parent="1">
          <mxGeometry x="510" y="130" width="190" height="80" as="geometry" />
        </mxCell>
        <mxCell id="WDoK3xI-HkcbFQ0kCRsj-19" style="edgeStyle=orthogonalEdgeStyle;rounded=0;orthogonalLoop=1;jettySize=auto;html=1;exitX=0.5;exitY=1;exitDx=0;exitDy=0;entryX=1;entryY=0.5;entryDx=0;entryDy=0;" edge="1" parent="1" source="WDoK3xI-HkcbFQ0kCRsj-17" target="WDoK3xI-HkcbFQ0kCRsj-3">
          <mxGeometry relative="1" as="geometry" />
        </mxCell>
        <mxCell id="WDoK3xI-HkcbFQ0kCRsj-17" value="Планируем эту же задачу на запись" style="rounded=0;whiteSpace=wrap;html=1;spacingLeft=5;spacingRight=5;" vertex="1" parent="1">
          <mxGeometry x="531.25" y="280" width="147.5" height="60" as="geometry" />
        </mxCell>
      </root>
    </mxGraphModel>
  </diagram>
</mxfile>
